# xmcd
#
# Track frame offsets:
#	150
#	18824
#	36704
#	55719
#	70876
#	83958
#	100304
#	117492
#	136442
#	158462
#	182934
#	205812
#	229358
#
# Disc length: 3385 seconds
#
# Revision: 0
# Processed by: cddbd v1.5.2PL0 Copyright (c) Steve Scherf et al.
# Submitted via: dBpowerAMP V4.0
#
DISCID=b50d370d
DTITLE=Sime Nugent - Happy Hour
DYEAR=1900
DGENRE=
TTITLE0=Don't Hide Away
TTITLE1=Alcoholic
TTITLE2=Rhyme or Reason
TTITLE3=Be There Soon
TTITLE4=Only One Water
TTITLE5=The Believer
TTITLE6=Martian and The Mermaid
TTITLE7=Every Chapter
TTITLE8=Virginia
TTITLE9=I'm Afraid For This Town
TTITLE10=Hullo Belle
TTITLE11=World Records
TTITLE12=Find Our Way
EXTD=
EXTT0=
EXTT1=
EXTT2=
EXTT3=
EXTT4=
EXTT5=
EXTT6=
EXTT7=
EXTT8=
EXTT9=
EXTT10=
EXTT11=
EXTT12=
PLAYORDER=
